<?xml version="1.0" standalone="no"?>
<!DOCTYPE svg PUBLIC "-//W3C//DTD SVG 20010904//EN"
 "http://www.w3.org/TR/2001/REC-SVG-20010904/DTD/svg10.dtd">
<svg version="1.0" xmlns="http://www.w3.org/2000/svg"
 width="784.000000pt" height="784.000000pt" viewBox="0 0 784.000000 784.000000"
 preserveAspectRatio="xMidYMid meet">

<g transform="translate(0.000000,784.000000) scale(0.100000,-0.100000)"
fill="#000000" stroke="none">
<path d="M0 3920 l0 -3920 3920 0 3920 0 0 3920 0 3920 -1985 0 c-1092 0
-1985 -2 -1985 -5 0 -2 33 -53 74 -112 262 -382 488 -860 617 -1300 128 -439
190 -824 192 -1183 1 -184 -1 -213 -21 -285 -12 -44 -20 -62 -16 -40 10 71 13
346 2 295 -63 -307 -130 -569 -139 -544 -3 11 -2 24 3 31 13 16 2 32 -19 29
-9 -2 -17 -13 -18 -25 -1 -13 -7 -26 -13 -30 -6 -4 -18 -45 -26 -91 -13 -71
-14 -75 -10 -25 69 796 34 1338 -127 1980 -66 262 -201 645 -282 800 -35 68
-34 52 4 -36 47 -110 110 -289 101 -289 -4 0 -6 -29 -6 -64 1 -57 -1 -64 -17
-63 -11 1 -19 7 -19 14 0 21 -96 33 -110 14 -7 -9 -50 -9 -50 1 0 4 5 10 10
13 5 3 10 14 10 23 0 13 -2 13 -15 -4 -8 -10 -15 -14 -15 -8 0 18 -34 11 -42
-8 -4 -10 -15 -18 -23 -18 -9 0 -13 5 -10 10 4 6 11 8 16 5 5 -4 9 -1 9 4 0 6
-11 11 -25 11 -15 0 -24 -5 -22 -12 1 -9 -8 -12 -30 -10 -25 2 -33 -1 -38 -19
-7 -22 -8 -22 -21 -4 -13 18 -14 18 -14 -2 0 -12 -5 -25 -10 -28 -6 -4 -11 14
-11 47 -1 29 -4 40 -6 23 -41 -343 -72 -522 -123 -720 -43 -167 -104 -353
-120 -369 -7 -7 -24 3 -57 36 l-46 47 51 128 c89 225 160 482 211 763 51 284
71 513 71 805 l0 215 -1870 0 -1870 0 0 -3920z m3972 2983 c-5 -24 -6 -25 -12
-8 -8 21 -4 35 9 35 5 0 6 -12 3 -27z m-215 -105 c-3 -8 -6 -5 -6 6 -1 11 2
17 5 13 3 -3 4 -12 1 -19z m-10 -95 c-3 -10 -5 -2 -5 17 0 19 2 27 5 18 2 -10
2 -26 0 -35z m-1912 -168 c302 -452 658 -757 1060 -910 65 -25 123 -50 127
-57 19 -29 29 -50 26 -54 -6 -6 -115 23 -178 48 -258 101 -422 208 -655 428
-44 41 -71 64 -60 51 16 -20 17 -23 4 -19 -13 5 -16 0 -14 -25 3 -27 1 -29
-10 -14 -16 23 -25 21 -25 -4 0 -27 -21 -20 -37 12 -7 13 -13 18 -13 12 0 -7
-9 -13 -20 -13 -14 0 -18 -5 -14 -17 5 -14 4 -15 -4 -4 -7 10 -11 10 -17 1 -9
-14 -33 27 -88 148 -65 142 -104 265 -131 407 -8 44 -18 89 -22 100 -11 31 -1
18 71 -90z m-78 -7 c-3 -8 -6 -5 -6 6 -1 11 2 17 5 13 3 -3 4 -12 1 -19z
m3528 -258 c233 -512 289 -1141 144 -1606 l-22 -69 -11 45 c-9 34 -9 55 0 86
23 79 45 292 43 416 -1 68 1 139 5 158 5 22 5 31 -1 25 -5 -5 -15 -41 -23 -80
-29 -159 -101 -332 -166 -405 l-36 -39 -49 25 c-27 13 -47 29 -44 35 4 5 1 8
-6 7 -7 -2 -18 17 -26 47 -39 139 -65 217 -70 212 -3 -4 2 -37 10 -74 9 -37
21 -98 27 -135 7 -37 19 -73 29 -82 9 -8 49 -31 89 -50 66 -33 86 -56 63 -70
-5 -4 -7 3 -4 14 5 19 2 22 -29 24 -7 1 -19 7 -26 14 -23 21 -36 13 -16 -10
19 -23 19 -23 -2 -5 -11 9 -26 17 -32 17 -7 0 -12 5 -12 11 0 5 -5 7 -10 4 -6
-4 -8 -15 -5 -25 3 -10 1 -21 -5 -25 -5 -3 -10 1 -10 9 0 9 -4 16 -10 16 -5 0
-10 -6 -10 -14 0 -8 -6 -16 -13 -19 -8 -3 -13 4 -12 21 0 14 -6 27 -13 30 -11
3 -12 0 -3 -17 10 -17 9 -21 -4 -21 -8 0 -15 5 -15 10 0 6 -9 10 -20 10 -13 0
-20 7 -20 20 0 11 -5 20 -11 20 -5 0 -7 -6 -3 -12 4 -7 -2 -4 -15 6 -12 11
-18 22 -14 25 5 3 14 17 21 30 13 21 12 23 -3 17 -11 -4 -15 -2 -12 6 2 7 9
12 15 11 7 -2 9 4 5 14 -4 11 -8 13 -11 5 -2 -7 -9 -9 -14 -6 -7 4 -8 2 -4 -4
4 -7 4 -12 -1 -12 -4 0 -19 -27 -32 -61 -13 -33 -25 -58 -27 -56 -3 2 4 24 14
48 51 120 73 323 48 449 l-9 45 38 -35 c38 -36 95 -136 95 -167 0 -12 3 -14
11 -6 8 8 3 30 -21 82 -18 39 -39 76 -46 82 -25 20 -15 36 49 78 85 55 102 75
131 153 45 120 66 248 71 433 l3 170 -7 -135 c-13 -214 -45 -389 -91 -493 -21
-48 -44 -69 -142 -131 l-57 -36 -41 38 c-22 22 -40 43 -40 48 0 6 19 19 43 31
100 49 189 161 238 299 51 146 83 381 77 566 -2 59 0 104 3 100 4 -4 28 -54
54 -112z m-3109 -275 c-1 -13 -5 -28 -10 -32 -5 -6 -3 35 3 55 4 11 8 -3 7
-23z m-121 -24 c3 -5 1 -12 -5 -16 -5 -3 -10 1 -10 9 0 18 6 21 15 7z m155 -5
c0 -2 -8 -10 -17 -17 -16 -13 -17 -12 -4 4 13 16 21 21 21 13z m-190 -26 c0
-5 -2 -10 -4 -10 -3 0 -8 5 -11 10 -3 6 -1 10 4 10 6 0 11 -4 11 -10z m54 -16
c3 -8 2 -12 -4 -9 -6 3 -10 10 -10 16 0 14 7 11 14 -7z m-41 -9 c-3 -9 -8 -14
-10 -11 -3 3 -2 9 2 15 9 16 15 13 8 -4z m1392 -115 c-3 -5 -14 -10 -23 -9
-14 0 -13 2 3 9 27 11 27 11 20 0z m-89 -45 c25 -13 26 -15 8 -21 -62 -22
-115 -50 -201 -109 -94 -65 -112 -69 -113 -28 0 13 66 68 122 102 27 16 128
62 154 71 1 0 14 -7 30 -15z m1509 -380 c78 -125 96 -294 46 -440 -12 -33 -19
-47 -17 -31 2 17 -2 36 -11 44 -9 9 -11 18 -5 24 11 11 4 48 -10 48 -5 0 -6
-9 -3 -20 7 -22 -5 -26 -23 -8 -17 17 -52 17 -52 1 0 -8 4 -12 8 -9 5 3 9 -1
9 -9 0 -11 -4 -12 -13 -4 -9 8 -14 4 -17 -13 -2 -13 -3 -7 0 12 2 19 9 62 14
95 7 37 9 129 5 240 -6 203 -11 198 69 70z m-108 -537 c-3 -8 -6 -5 -6 6 -1
11 2 17 5 13 3 -3 4 -12 1 -19z m411 -92 c-2 -1 -12 -8 -23 -16 -18 -14 -19
-13 -8 1 7 9 10 19 6 23 -4 4 1 4 10 0 10 -3 17 -7 15 -8z m-568 -38 c0 -4 -4
-8 -9 -8 -6 0 -12 4 -15 8 -3 5 1 9 9 9 8 0 15 -4 15 -9z m600 -26 c-13 -9
-52 -39 -85 -66 -33 -27 -51 -39 -40 -27 22 26 134 111 143 110 4 0 -4 -8 -18
-17z m-2558 -175 c4 -106 -1 -142 -16 -118 -11 18 -27 183 -21 212 4 18 11 26
20 23 10 -4 14 -36 17 -117z m2622 12 c-4 -44 -10 -66 -14 -55 -6 19 9 140 17
132 2 -2 1 -37 -3 -77z m1183 -25 c3 -8 1 -20 -5 -26 -15 -15 -43 8 -35 28 7
19 32 18 40 -2z m-3101 -30 c18 -14 18 -14 -6 -3 -31 14 -36 19 -24 19 6 0 19
-7 30 -16z m1161 -16 c-3 -7 -5 -2 -5 12 0 14 2 19 5 13 2 -7 2 -19 0 -25z
m-1039 -52 c98 -62 234 -177 303 -258 78 -92 131 -167 127 -180 -3 -8 -10 -3
-18 12 -28 52 -175 222 -248 286 -42 37 -117 94 -167 127 -97 63 -102 67 -92
67 4 0 47 -25 95 -54z m-1415 22 c15 -5 27 -14 27 -20 0 -5 4 -7 9 -4 14 9 42
-5 35 -16 -4 -6 2 -8 15 -3 11 3 29 2 38 -4 11 -6 13 -11 5 -11 -7 0 -10 -4
-7 -10 3 -6 -1 -7 -10 -3 -14 5 -14 8 -3 15 9 7 6 8 -10 5 -15 -4 -47 7 -90
30 -70 38 -90 51 -57 39 11 -5 32 -13 48 -18z m3197 2 c0 -5 -5 -10 -11 -10
-5 0 -7 5 -4 10 3 6 8 10 11 10 2 0 4 -4 4 -10z m-1839 -50 c98 -49 210 -133
289 -217 82 -86 215 -276 206 -292 -3 -4 -31 -16 -63 -27 -85 -27 -229 -25
-306 5 -111 43 -194 129 -236 244 -27 72 -40 263 -22 309 10 27 11 27 49 14
21 -8 59 -24 83 -36z m-1132 -26 c2 -2 -10 -4 -27 -4 -17 0 -34 4 -37 10 -5 9
53 3 64 -6z m-14 -30 c24 -11 25 -13 5 -8 -14 4 -38 13 -55 20 -24 11 -25 13
-5 8 14 -4 39 -13 55 -20z m52 20 c-3 -3 -12 -4 -19 -1 -8 3 -5 6 6 6 11 1 17
-2 13 -5z m308 -11 c4 -13 3 -15 -5 -7 -7 7 -27 8 -58 3 -26 -4 -72 -7 -102
-7 -45 1 -37 3 45 13 55 7 103 13 106 14 4 0 10 -7 14 -16z m-242 0 c-7 -2
-21 -2 -30 0 -10 3 -4 5 12 5 17 0 24 -2 18 -5z m2701 -151 c-30 -95 -49 -140
-56 -136 -7 5 -9 2 -5 -8 3 -9 -1 -35 -9 -58 -8 -23 -12 -45 -10 -48 9 -8 67
20 114 56 24 18 46 31 49 29 10 -10 -28 -67 -45 -67 -10 0 -31 -14 -48 -32
-16 -18 -22 -27 -13 -20 9 6 20 8 24 4 5 -4 5 -1 1 6 -4 7 -1 12 8 12 8 0 16
6 19 13 2 6 8 8 13 4 5 -5 1 -14 -8 -21 -10 -7 -15 -16 -12 -19 13 -12 -109
-195 -127 -190 -4 2 -6 -3 -3 -10 2 -7 -4 -22 -16 -32 l-20 -18 16 49 c17 50
34 78 34 56 0 -7 5 -12 11 -12 6 0 7 5 2 13 -11 18 -12 37 -2 37 6 0 8 4 5 8
-3 5 1 9 9 10 8 1 21 3 28 4 15 2 62 78 49 78 -5 0 -15 -7 -22 -15 -9 -11 -16
-12 -25 -5 -10 8 -13 6 -11 -7 0 -10 -5 -17 -11 -15 -7 1 -13 -2 -13 -7 0 -5
6 -12 13 -14 6 -3 2 -6 -10 -6 -20 -1 -28 -15 -25 -43 1 -3 -5 -8 -12 -11 -11
-5 -11 2 -1 36 13 47 26 117 20 117 -2 0 -14 -35 -26 -77 -21 -70 -30 -85 -89
-145 -47 -48 -73 -68 -90 -68 l-25 1 25 20 c49 40 117 109 128 131 15 29 148
432 157 476 6 28 43 78 51 69 2 -2 -17 -67 -42 -145z m-1978 -72 c9 -40 28
-85 49 -116 37 -54 129 -139 208 -193 53 -36 59 -45 22 -31 -39 15 -128 84
-190 147 -70 72 -101 136 -114 236 -13 95 -12 154 1 77 5 -30 16 -84 24 -120z
m1762 58 c-24 -29 -86 -104 -137 -165 -51 -62 -95 -113 -98 -113 -6 0 -10 -6
92 125 76 96 173 205 183 205 2 0 -16 -24 -40 -52z m37 -102 c-17 -78 -55
-181 -81 -221 -8 -12 -11 -25 -7 -29 5 -4 3 -6 -2 -4 -6 2 -32 -15 -58 -36
-54 -44 -123 -58 -177 -36 l-30 12 23 28 c100 123 336 375 344 367 3 -3 -2
-40 -12 -81z m-3740 64 c3 -5 1 -10 -4 -10 -6 0 -11 5 -11 10 0 6 2 10 4 10 3
0 8 -4 11 -10z m3895 -284 c0 -3 -4 -8 -10 -11 -5 -3 -10 -1 -10 4 0 6 5 11
10 11 6 0 10 -2 10 -4z m500 -215 c83 -21 251 -92 317 -134 87 -55 200 -208
289 -392 65 -136 93 -211 54 -145 -12 19 -19 28 -17 20 17 -59 12 -54 -31 35
-48 100 -130 232 -156 254 -12 10 -16 2 -26 -46 -6 -32 -12 -62 -14 -67 -1 -5
-23 20 -48 55 -104 146 -312 311 -463 369 -43 17 -27 4 38 -30 84 -43 213
-134 210 -148 -2 -6 3 -9 10 -6 7 2 24 -7 37 -21 19 -21 21 -25 7 -25 -9 0
-17 -5 -17 -10 0 -11 22 -9 31 2 3 5 21 -9 40 -29 l34 -36 -36 26 c-20 15 -39
24 -42 20 -4 -3 0 -11 9 -17 13 -10 13 -12 -5 -12 -11 0 -18 3 -15 7 2 4 -3
12 -11 19 -16 13 -39 4 -29 -11 3 -6 -36 33 -87 86 -96 100 -204 187 -293 237
l-51 30 95 -6 c52 -3 129 -15 170 -25z m-810 -124 c-24 -66 -67 -157 -75 -157
-2 0 9 29 25 64 16 36 37 90 46 121 10 32 20 52 22 45 2 -6 -6 -39 -18 -73z
m-113 -39 c-3 -8 -6 -5 -6 6 -1 11 2 17 5 13 3 -3 4 -12 1 -19z m1468 -62 c33
-14 51 -32 20 -20 -8 3 -29 1 -46 -5 -24 -8 -36 -8 -46 1 -13 10 -12 14 3 25
22 16 27 16 69 -1z m-4695 -27 c0 -20 -24 -26 -35 -9 -4 6 -4 17 -1 25 7 20
36 7 36 -16z m1265 -18 c0 -15 -148 -61 -195 -61 -22 0 -162 47 -150 50 3 1
50 8 105 15 132 17 240 15 240 -4z m1962 -48 c-2 -16 -4 -5 -4 22 0 28 2 40 4
28 2 -13 2 -35 0 -50z m1559 6 c16 -32 18 -107 4 -129 -7 -11 -10 3 -10 45 0
42 -6 70 -20 93 -11 18 -20 35 -20 38 0 13 32 -21 46 -47z m-477 -58 c19 -19
19 -20 -35 -61 -76 -57 -155 -157 -214 -270 -51 -97 -56 -86 -14 29 38 100 82
170 158 249 38 39 73 72 78 72 4 0 17 -9 27 -19z m-3550 -124 l52 -23 -53 2
c-29 0 -73 4 -98 9 l-45 8 45 13 c25 6 46 12 46 13 1 1 25 -9 53 -22z m-177
-10 c-12 -13 -30 -56 -40 -95 -10 -40 -22 -69 -27 -65 -4 5 -5 0 -2 -9 4 -10
2 -18 -3 -18 -13 0 -12 13 5 90 24 101 34 120 63 120 l25 0 -21 -23z m4424 -4
c12 -7 33 -37 48 -66 26 -51 22 -48 -19 17 -20 31 -52 43 -82 32 -12 -5 -13
-9 -3 -21 7 -9 10 -19 6 -22 -4 -4 -10 -2 -14 4 -4 6 -22 14 -41 18 -19 4 -53
16 -75 26 l-41 19 57 -6 c43 -5 62 -2 79 10 24 17 48 14 85 -11z m-150 -39
c17 -14 17 -15 1 -10 -10 3 -23 6 -28 6 -5 0 -9 5 -9 10 0 14 13 12 36 -6z
m-1913 -97 c-3 -18 -7 -34 -9 -36 -2 -2 -24 7 -49 20 l-45 24 43 21 c51 27 69
18 60 -29z m172 -16 c46 -20 136 -115 165 -172 33 -63 23 -56 -40 29 -68 90
-111 122 -176 130 -36 4 -42 7 -33 18 15 18 36 17 84 -5z m1972 -13 c-3 -8 -6
-5 -6 6 -1 11 2 17 5 13 3 -3 4 -12 1 -19z m396 -77 c52 -71 69 -108 52 -108
-7 0 -11 7 -7 15 3 10 1 13 -6 8 -8 -5 -10 -1 -5 10 5 13 3 15 -7 9 -9 -6 -11
-4 -5 6 7 11 6 12 -6 2 -13 -11 -18 -3 -37 47 -12 33 -20 60 -18 60 2 0 20
-22 39 -49z m-1964 -63 c0 -35 -2 -39 -9 -21 -8 19 -3 63 6 63 2 0 4 -19 3
-42z m-25 -65 c-4 -27 -11 -57 -16 -68 -8 -20 -4 24 8 88 9 46 16 30 8 -20z
m1716 -163 c0 -60 2 -110 4 -110 3 0 26 13 53 30 68 42 157 51 206 21 60 -37
67 -66 67 -270 0 -170 -1 -181 -19 -181 -10 0 -39 -3 -65 -6 l-46 -7 0 159 c0
184 -7 204 -66 204 -39 0 -68 -12 -101 -43 -22 -20 -23 -27 -23 -187 l0 -167
-46 -7 c-93 -12 -84 -49 -84 328 l0 335 53 4 c28 2 55 4 60 5 4 1 7 -47 7
-108z m-331 -70 l12 -40 54 6 55 7 0 -57 0 -56 -32 0 c-80 0 -78 2 -71 -134 3
-66 10 -127 16 -134 7 -8 26 -12 50 -10 l40 3 0 -50 0 -50 -59 -11 c-68 -14
-111 -9 -145 16 l-24 19 -3 265 -3 266 49 0 c48 0 49 0 61 -40z m-270 -128
c54 -40 65 -67 66 -154 l0 -82 -53 -12 c-30 -7 -101 -18 -158 -25 -114 -13
-123 -21 -79 -64 32 -33 102 -33 253 0 20 5 22 2 22 -43 0 -45 -2 -49 -32 -60
-58 -20 -171 -33 -229 -27 -66 8 -121 46 -144 102 -19 46 -19 165 0 229 15 50
64 109 114 134 64 33 198 34 240 2z m-641 -164 c-16 -62 -40 -166 -54 -231
-33 -158 -37 -164 -93 -176 -25 -5 -48 -8 -52 -5 -7 4 -99 232 -114 283 -4 12
-11 19 -15 15 -4 -5 -26 -72 -49 -148 -23 -76 -51 -152 -62 -167 -19 -27 -72
-46 -101 -37 -13 5 -137 463 -127 472 2 2 29 7 60 10 67 8 60 19 95 -149 14
-66 28 -129 31 -139 6 -22 10 -12 63 174 18 63 36 122 41 131 4 8 28 20 52 26
53 11 45 22 107 -142 69 -181 60 -181 86 4 13 91 27 168 31 172 8 8 114 27
124 23 3 -2 -8 -54 -23 -116z m-2484 100 c-33 -56 -473 -688 -479 -688 -3 0
-27 28 -55 61 -51 61 -51 62 -32 83 17 19 44 58 218 312 34 50 81 118 103 150
l41 59 97 16 c54 9 102 17 106 18 5 1 5 -5 1 -11z m1226 -347 l0 -329 -27 -6
c-16 -3 -44 -7 -63 -8 l-35 -3 -3 332 -2 332 42 4 c24 2 53 4 66 5 l22 2 0
-329z m-710 184 c0 -60 3 -57 -82 -69 l-38 -5 0 54 0 53 53 10 c28 5 55 10 60
11 4 0 7 -24 7 -54z m1173 5 c52 -31 57 -51 57 -254 l0 -184 -30 -4 c-17 -3
-42 1 -56 8 -21 11 -32 9 -87 -16 -77 -37 -155 -41 -205 -10 -39 24 -52 54
-52 121 0 45 4 53 43 93 46 46 88 61 197 73 l60 6 0 33 c0 30 -4 34 -37 43
-31 8 -56 6 -130 -12 l-93 -23 0 48 c0 55 5 58 115 83 94 20 178 19 218 -5z
m-673 -124 l0 -53 -82 -5 c-140 -9 -193 -54 -193 -165 0 -58 3 -67 28 -88 15
-13 43 -27 63 -31 35 -6 129 9 167 28 15 8 17 3 17 -46 l0 -54 -69 -16 c-86
-20 -191 -21 -235 -2 -93 39 -135 198 -82 311 23 51 73 103 124 129 38 19 155
44 215 45 l47 1 0 -54z m-2040 -330 l0 -344 -43 -58 c-24 -33 -64 -82 -90
-110 -45 -49 -47 -51 -129 -63 -46 -7 -141 -23 -213 -36 -71 -14 -177 -31
-235 -40 -58 -8 -120 -17 -138 -20 l-32 -6 2 343 c1 200 6 351 11 363 16 31
169 204 187 210 8 3 116 21 240 40 124 20 270 44 325 54 55 10 103 16 108 14
4 -2 7 -159 7 -347z m1542 72 c-2 -134 -5 -244 -6 -245 -1 -1 -28 -5 -59 -9
l-57 -7 2 244 3 244 40 6 c89 14 80 40 77 -233z m2158 145 c0 -46 -24 -73 -65
-73 -41 0 -55 16 -55 61 0 41 7 49 54 59 46 10 66 -4 66 -47z m-2489 27 c109
-30 150 -204 82 -348 -40 -85 -116 -131 -229 -139 l-74 -6 0 -93 0 -93 -55 -6
c-30 -4 -57 -7 -61 -6 -3 0 -7 147 -10 326 l-3 325 27 7 c170 42 257 51 323
33z m-745 -322 c98 -117 201 -239 228 -273 l48 -60 -88 -17 c-49 -10 -96 -17
-104 -17 -8 0 -32 21 -53 47 -21 26 -74 90 -117 142 -243 295 -290 354 -290
360 0 8 100 27 156 29 l40 1 180 -212z m-193 -140 c7 -7 31 -36 54 -64 37 -45
40 -52 27 -66 -8 -8 -86 -115 -172 -238 l-157 -224 -105 -17 c-58 -9 -106 -16
-108 -14 -1 1 55 83 126 181 70 99 170 241 221 317 51 75 95 137 98 137 2 0
10 -6 16 -12z"/>
<path d="M1830 6483 c0 -5 10 -19 21 -33 l20 -25 -16 33 c-15 30 -25 41 -25
25z"/>
<path d="M1887 6383 c3 -10 14 -27 25 -39 10 -11 15 -24 11 -29 -5 -4 -2 -5 4
-1 9 5 6 17 -14 46 -28 43 -36 50 -26 23z"/>
<path d="M2112 6090 c7 -11 17 -20 22 -20 5 0 1 9 -9 20 -10 11 -20 20 -22 20
-2 0 2 -9 9 -20z"/>
<path d="M1997 6013 c4 -11 3 -14 -5 -9 -8 5 -10 2 -6 -8 3 -9 10 -13 15 -10
12 7 11 44 -1 44 -5 0 -6 -7 -3 -17z"/>
<path d="M2081 5994 c0 -11 3 -14 6 -6 3 7 2 16 -1 19 -3 4 -6 -2 -5 -13z"/>
<path d="M5194 4831 c13 -12 18 -13 28 -2 11 10 9 11 -6 5 -12 -5 -17 -4 -13
3 3 5 -1 10 -9 10 -13 0 -13 -2 0 -16z"/>
<path d="M4975 4830 c3 -5 8 -10 11 -10 2 0 4 5 4 10 0 6 -5 10 -11 10 -5 0
-7 -4 -4 -10z"/>
<path d="M4940 4809 c0 -5 5 -7 10 -4 6 3 10 8 10 11 0 2 -4 4 -10 4 -5 0 -10
-5 -10 -11z"/>
<path d="M5014 3792 c-14 -9 -27 -45 -14 -37 9 6 34 45 28 45 -2 0 -8 -4 -14
-8z"/>
<path d="M5707 3343 c3 -7 6 -13 8 -13 2 0 5 6 8 13 3 8 -1 14 -8 14 -7 0 -11
-6 -8 -14z"/>
<path d="M5670 3346 c0 -2 7 -7 16 -10 8 -3 12 -2 9 4 -6 10 -25 14 -25 6z"/>
<path d="M5833 2289 c-33 -10 -83 -61 -83 -85 0 -12 10 -13 53 -8 127 16 132
18 135 46 2 18 -4 31 -20 42 -25 18 -38 19 -85 5z"/>
<path d="M4425 1889 c-92 -9 -127 -37 -110 -89 7 -23 60 -27 116 -9 49 17 61
31 57 70 l-3 34 -60 -6z"/>
<path d="M1550 1841 c-366 -61 -325 -50 -374 -101 l-45 -45 -1 -235 -2 -235
29 3 c96 10 448 74 463 85 9 6 29 26 44 43 l26 32 0 236 c0 218 -1 236 -17
235 -10 -1 -65 -9 -123 -18z m46 -167 c-3 -9 -42 -66 -87 -128 l-81 -112 -89
-14 c-49 -7 -92 -10 -95 -7 -5 5 56 95 133 197 34 44 37 45 121 61 48 9 91 17
96 18 4 0 5 -6 2 -15z"/>
<path d="M2950 1844 c-8 -1 -36 -6 -62 -9 l-48 -6 0 -125 0 -124 58 0 c102 0
152 52 152 160 0 44 -5 56 -29 81 -28 28 -37 31 -71 23z"/>
<path d="M4166 6913 c-6 -14 -5 -15 5 -6 7 7 10 15 7 18 -3 3 -9 -2 -12 -12z"/>
</g>
</svg>
